<?xml version="1.0" encoding="utf-8"?>
<svg viewBox="0 0 500 500" xmlns="http://www.w3.org/2000/svg">
  <path d="M 399.986 78.785 C 396.118 78.785 392.327 79.1 388.628 79.709 C 379.345 52.103 353.216 32.155 322.52 32.155 C 316.267 32.155 310.202 32.982 304.431 34.533 C 292.114 14.613 270.132 1.318 245.053 1.318 C 219.972 1.318 197.895 14.671 185.596 34.667 C 179.884 33.128 173.88 32.305 167.683 32.305 C 129.239 32.305 97.875 63.582 97.875 102.025 L 97.875 219.775 C 92.801 218.806 87.611 218.225 82.381 218.225 C 82.379 218.225 82.384 218.225 82.381 218.225 C 40.182 218.225 4.905 252.311 4.905 295.789 C 4.905 315.437 12.224 334.057 25.686 348.515 L 104.363 432.992 C 142.312 473.769 196.054 497.106 251.734 497.106 L 283.767 497.106 C 386.333 497.106 469.707 413.733 469.707 311.185 L 469.707 148.505 C 469.707 110.062 438.429 78.785 399.986 78.785 Z M 423.226 311.185 C 423.226 388.081 360.682 450.626 284.657 450.626 L 251.734 450.626 C 208.73 450.626 167.653 432.751 138.342 401.279 L 61.108 318.361 C 55.101 311.913 51.999 303.448 51.999 295.993 C 51.999 274.534 69.942 265.587 82.356 265.587 C 90.646 265.587 98.915 268.894 105.035 275.444 L 130.909 303.226 C 132.532 304.117 134.565 304.794 136.502 304.794 C 140.478 304.794 144.311 301.723 144.311 297.033 L 144.311 102.025 C 144.311 89.194 154.72 78.785 166.679 78.785 C 179.509 78.785 189.048 89.194 189.048 102.025 L 189.048 249.212 C 190.826 257.733 197.798 264.706 206.319 264.706 C 214.841 264.706 220.941 257.769 220.941 250.084 L 221.812 71.039 C 221.812 58.208 232.222 47.798 244.181 47.798 C 257.011 47.798 266.55 58.208 266.55 71.039 L 266.55 249.212 C 268.293 257.733 275.265 264.706 283.786 264.706 C 292.307 264.706 299.269 257.768 299.269 250.084 L 299.278 102.703 C 299.278 89.872 309.687 79.463 321.646 79.463 C 334.476 79.463 344.015 89.872 344.015 102.703 L 344.015 250.084 C 345.759 257.733 352.732 264.706 361.253 264.706 C 369.774 264.706 375.875 257.769 375.875 250.084 L 375.875 148.505 C 375.875 135.675 386.284 125.264 398.244 125.264 C 411.074 125.264 420.612 135.675 420.612 148.505 L 420.612 311.185 L 423.226 311.185 Z" style=""/>
</svg>