<?xml version="1.0" encoding="utf-8"?>
<svg viewBox="0 0 500 500" xmlns="http://www.w3.org/2000/svg">
  <path d="M 386.841 67.257 C 374.141 50.491 353.441 40.229 330.941 40.229 L 317.411 40.229 C 313.893 40.229 310.372 40.494 306.881 41.017 C 294.541 31.875 279.341 26.739 263.241 26.739 L 249.741 26.739 C 245.764 26.739 241.837 27.094 237.991 27.783 C 226.441 12.006 207.341 1.686 185.741 1.686 L 169.741 1.686 C 134.441 1.686 105.741 29.292 105.741 63.354 L 105.741 111.253 L 72.781 139.765 C 53.041 155.857 41.741 179.561 41.741 204.903 L 41.741 280.996 C 41.741 311.926 58.851 340.4 86.391 355.306 L 121.741 374.491 L 121.741 471.908 C 121.741 484.723 132.441 495.033 144.841 495.033 C 157.241 495.033 169.741 484.723 169.741 471.908 L 169.741 346.74 C 168.425 346.109 166.966 345.853 165.679 345.161 L 109.899 314.962 C 97.461 308.294 89.741 295.189 89.741 281.025 L 89.741 204.903 C 89.741 193.041 95.022 181.999 104.241 174.656 L 121.741 159.519 L 121.741 202.108 C 121.741 210.588 128.941 217.525 137.741 217.525 C 146.541 217.525 153.741 210.63 153.741 202.108 L 153.741 63.354 C 153.741 54.848 160.929 47.937 169.741 47.937 L 185.741 47.937 C 194.541 47.937 201.741 54.846 201.741 63.354 L 201.741 78.771 C 201.741 88.001 209.683 94.227 217.891 94.227 C 224.323 94.227 230.201 90.356 232.621 84.428 C 233.041 83.435 238.041 72.99 249.741 72.99 L 263.271 72.99 C 284.241 72.99 281.191 91.857 297.541 91.857 C 305.718 91.857 307.441 86.476 317.421 86.476 L 330.951 86.476 C 356.491 86.476 349.221 113.678 369.611 113.678 C 369.767 113.678 369.924 113.676 370.078 113.67 L 385.141 113.46 C 397.841 113.46 409.741 124.734 409.741 138.513 L 409.741 263.777 C 409.741 298.61 390.201 328.644 361.741 344.418 L 361.741 471.898 C 361.741 484.723 372.441 495.033 384.841 495.033 C 397.241 495.033 409.741 484.723 409.741 471.908 L 409.741 367.746 C 439.841 341.633 457.741 303.861 457.741 263.777 L 457.741 138.513 C 457.741 100.066 426.541 68.596 386.841 67.257 Z" style=""/>
</svg>