<?xml version="1.0" encoding="utf-8"?>
<svg viewBox="0 0 500 500" xmlns="http://www.w3.org/2000/svg">
  <path d="M 232.34 33.988 L 299.978 34 C 304.92 34 309.865 34.563 314.669 35.671 L 429.653 62.173 C 458.987 68.932 479.704 94.843 479.704 124.549 L 479.704 323.312 C 479.704 346.353 467.114 367.713 446.846 379.057 L 352.153 432.059 C 318.904 450.671 287.159 437.686 263.046 408.161 L 123.007 462.036 C 86.397 476.123 45.114 458.435 30.591 422.225 C 16.002 385.853 34.103 344.566 71.118 330.321 L 147.309 312.273 L 56.479 321.106 C 17.052 321.106 -15.025 289.401 -15.025 250.433 C -15.025 211.463 17.052 179.759 56.479 179.759 L 141.158 179.759 C 137.607 154.399 149.557 130.192 170.476 116.946 C 157.606 75.791 188.901 33.988 232.34 33.988 Z M 232.34 80.381 C 208.029 80.381 208.067 115.714 232.34 115.714 C 240.879 115.714 247.8 122.636 247.8 131.175 L 247.8 137.8 C 247.8 146.339 240.879 153.26 232.34 153.26 L 205.284 153.26 C 180.975 153.26 181.01 188.594 205.284 188.594 L 232.34 188.594 C 240.879 188.594 247.8 195.515 247.8 204.053 L 247.8 210.678 C 247.8 219.217 240.879 226.139 232.34 226.139 L 56.479 226.139 C 23.211 226.139 23.264 274.724 56.479 274.724 L 232.34 274.724 C 240.879 274.724 247.8 281.644 247.8 290.184 L 247.8 301.423 C 247.802 307.82 243.862 313.556 237.892 315.853 L 87.776 373.621 C 57.288 385.352 74.797 430.904 106.349 418.762 L 267.28 356.833 C 273.513 354.434 280.583 356.31 284.808 361.483 L 305.837 387.231 C 311.461 394.118 321.634 395.99 329.499 391.587 L 424.193 338.583 C 429.825 335.43 433.324 329.579 433.324 323.311 L 433.324 124.549 C 433.324 116.345 427.531 109.278 419.239 107.367 L 304.252 80.865 C 302.851 80.543 301.417 80.38 299.978 80.38 L 232.34 80.38 L 232.34 80.381 Z" style="" transform="matrix(0, 1, -1, 0, 482.771186, 18.092177)"/>
</svg>